<?xml version="1.0" encoding="utf-8"?>
<!-- Generator: Adobe Illustrator 25.1.0, SVG Export Plug-In . SVG Version: 6.00 Build 0)  -->
<svg version="1.1" id="Capa_1" xmlns="http://www.w3.org/2000/svg" xmlns:xlink="http://www.w3.org/1999/xlink" x="0px" y="0px"
	 viewBox="0 0 164 141" style="enable-background:new 0 0 164 141;" xml:space="preserve">
<style type="text/css">
	.st0{fill:#075108;}
	.st1{fill:#FFFFFF;}
	.st2{fill:#CDD500;}
</style>
<g>
	<g>
		<g>
			<path class="st0" d="M159.6,136.3H4.6c-0.8,0-1.5-0.7-1.5-1.5s0.7-1.5,1.5-1.5h155c0.8,0,1.5,0.7,1.5,1.5
				S160.4,136.3,159.6,136.3z"/>
		</g>
		<g>
			<path class="st0" d="M42.6,136.3h-23c-0.8,0-1.5-0.7-1.5-1.5v-37c0-0.8,0.7-1.5,1.5-1.5h23c0.8,0,1.5,0.7,1.5,1.5v37
				C44.1,135.6,43.4,136.3,42.6,136.3z M21.1,133.3h20v-34h-20V133.3z"/>
		</g>
		<g>
			<path class="st0" d="M77.6,136.3h-23c-0.8,0-1.5-0.7-1.5-1.5v-50c0-0.8,0.7-1.5,1.5-1.5h23c0.8,0,1.5,0.7,1.5,1.5v50
				C79.1,135.6,78.4,136.3,77.6,136.3z M56.1,133.3h20v-47h-20V133.3z"/>
		</g>
		<g>
			<path class="st0" d="M112.6,136.3h-23c-0.8,0-1.5-0.7-1.5-1.5v-47c0-0.8,0.7-1.5,1.5-1.5h23c0.8,0,1.5,0.7,1.5,1.5v47
				C114.1,135.6,113.4,136.3,112.6,136.3z M91.1,133.3h20v-44h-20V133.3z"/>
		</g>
		<g>
			<path class="st0" d="M147.6,136.3h-23c-0.8,0-1.5-0.7-1.5-1.5v-70c0-0.8,0.7-1.5,1.5-1.5h23c0.8,0,1.5,0.7,1.5,1.5v70
				C149.1,135.6,148.4,136.3,147.6,136.3z M126.1,133.3h20v-67h-20V133.3z"/>
		</g>
		<g>
			<path class="st0" d="M30.6,85.3c-0.5,0-0.9-0.2-1.2-0.7c-0.5-0.7-0.3-1.6,0.4-2.1l35-24c0.4-0.3,1-0.3,1.5-0.1l30.9,13.8
				l16.3-20.3c0.5-0.6,1.5-0.8,2.1-0.2c0.6,0.5,0.8,1.5,0.2,2.1l-17,21.2c-0.4,0.5-1.2,0.7-1.8,0.4L65.8,61.5L31.5,85
				C31.2,85.2,30.9,85.3,30.6,85.3z"/>
		</g>
		<g>
			<circle class="st1" cx="97.1" cy="74.3" r="4"/>
			<path class="st0" d="M97.1,79.8c-3,0-5.5-2.5-5.5-5.5s2.5-5.5,5.5-5.5s5.5,2.5,5.5,5.5S100.1,79.8,97.1,79.8z M97.1,71.8
				c-1.4,0-2.5,1.1-2.5,2.5s1.1,2.5,2.5,2.5s2.5-1.1,2.5-2.5S98.5,71.8,97.1,71.8z"/>
		</g>
		<g>
			<circle class="st1" cx="66.6" cy="60.8" r="4"/>
			<path class="st0" d="M66.6,66.3c-3,0-5.5-2.5-5.5-5.5s2.5-5.5,5.5-5.5s5.5,2.5,5.5,5.5S69.7,66.3,66.6,66.3z M66.6,58.3
				c-1.4,0-2.5,1.1-2.5,2.5s1.1,2.5,2.5,2.5s2.5-1.1,2.5-2.5S68,58.3,66.6,58.3z"/>
		</g>
		<g>
			<circle class="st2" cx="138.1" cy="31.3" r="21"/>
		</g>
		<g>
			<path class="st0" d="M127.5,42.7c-0.2,0-0.5-0.1-0.7-0.2c-4-2.1-7-5.7-8.4-10.1c-1.4-4.4-0.9-9,1.2-13.1c0.4-0.7,1.3-1,2-0.6
				c0.7,0.4,1,1.3,0.6,2c-1.8,3.3-2.1,7.2-1,10.8c1.1,3.6,3.6,6.5,6.9,8.3c0.7,0.4,1,1.3,0.6,2C128.6,42.4,128.1,42.7,127.5,42.7z"
				/>
		</g>
		<g>
			<path class="st0" d="M148.6,36.1c-0.2,0-0.5-0.1-0.7-0.2c-0.7-0.4-1-1.3-0.6-2c1.8-3.3,2.1-7.2,1-10.8c-1.1-3.6-3.6-6.5-6.9-8.3
				c-0.7-0.4-1-1.3-0.6-2s1.3-1,2-0.6c4,2.1,7,5.7,8.4,10.1c1.4,4.4,0.9,9-1.2,13.1C149.7,35.9,149.2,36.1,148.6,36.1z"/>
		</g>
		<g>
			<g>
				<path class="st0" d="M138.6,32.7c-0.7,0.7-1.6,1.2-2.8,1.5v3.2h-2.3v-3.1c-1.8-0.2-3.3-0.8-4.4-1.9l1.7-1.8
					c1,0.9,2.1,1.4,3.4,1.4c0.7,0,1.2-0.1,1.6-0.4c0.4-0.3,0.6-0.7,0.6-1.2c0-0.3-0.1-0.6-0.2-0.8c-0.1-0.2-0.4-0.4-0.7-0.6
					c-0.4-0.2-0.9-0.4-1.5-0.6c-1.5-0.5-2.6-1-3.2-1.7c-0.6-0.7-0.9-1.5-0.9-2.5s0.4-1.9,1.1-2.6c0.7-0.7,1.6-1.1,2.8-1.3v-3h2.3v3
					c1.3,0.2,2.5,0.8,3.4,1.7l-1.5,1.8c-0.9-0.8-1.9-1.1-3-1.1c-0.6,0-1,0.1-1.3,0.3c-0.3,0.2-0.5,0.6-0.5,1c0,0.3,0.1,0.5,0.2,0.7
					c0.1,0.2,0.4,0.4,0.8,0.5c0.4,0.2,0.9,0.4,1.7,0.6c1.4,0.4,2.4,1,3.1,1.6c0.7,0.7,1,1.6,1,2.7C139.6,31.1,139.3,32,138.6,32.7z"
					/>
			</g>
		</g>
		<g>
			<path class="st0" d="M134.7,49.8c-12.4,0-22.5-10.1-22.5-22.5s10.1-22.5,22.5-22.5s22.5,10.1,22.5,22.5S147.1,49.8,134.7,49.8z
				 M134.7,7.8c-10.8,0-19.5,8.7-19.5,19.5s8.7,19.5,19.5,19.5s19.5-8.7,19.5-19.5S145.5,7.8,134.7,7.8z"/>
		</g>
	</g>
</g>
</svg>
