<?xml version="1.0" encoding="utf-8"?>
<!-- Generator: Adobe Illustrator 25.1.0, SVG Export Plug-In . SVG Version: 6.00 Build 0)  -->
<svg version="1.1" id="Capa_1" xmlns="http://www.w3.org/2000/svg" xmlns:xlink="http://www.w3.org/1999/xlink" x="0px" y="0px"
	 viewBox="0 0 164 141" style="enable-background:new 0 0 164 141;" xml:space="preserve">
<style type="text/css">
	.st0{fill:#075108;}
	.st1{fill:#CDD500;}
	.st2{fill:#FFFFFF;}
</style>
<g>
	<g>
		<g>
			<path class="st0" d="M124.2,65.5c-0.8,0-1.4-0.6-1.5-1.4c-0.1-0.8,0.6-1.5,1.4-1.6l16-1.3c0.8-0.1,1.5,0.6,1.6,1.4
				c0.1,0.8-0.6,1.5-1.4,1.6l-16,1.3C124.3,65.5,124.3,65.5,124.2,65.5z"/>
		</g>
		<g>
			<path class="st0" d="M31.5,72.8c-0.8,0-1.4-0.6-1.5-1.4c-0.1-0.8,0.6-1.5,1.4-1.6l16-1.3c0.8-0.1,1.5,0.6,1.6,1.4
				c0.1,0.8-0.6,1.5-1.4,1.6l-16,1.3C31.6,72.8,31.6,72.8,31.5,72.8z"/>
		</g>
		<g>
			<polygon class="st1" points="93,91.3 88.7,93.5 84.3,91.3 84.3,67.3 93,67.3 			"/>
		</g>
		<g>
			<path class="st1" d="M90.6,45.4h-5c-4.4,0-7.9,3.5-7.9,7.9v10.1c0,2.2,1.7,3.9,3.9,3.9h13c2.2,0,3.9-1.7,3.9-3.9V53.3
				C98.5,48.9,95,45.4,90.6,45.4z"/>
		</g>
		<g>
			<circle class="st2" cx="87.4" cy="52" r="3"/>
		</g>
		<g>
			<g>
				<path class="st2" d="M125.7,130.5l9.1,1.9l6.7-32l-9.1-1.9c-2.8-0.6-5.5,1.2-6.1,4l-4.6,21.8
					C121.1,127.2,122.9,129.9,125.7,130.5z"/>
				<path class="st0" d="M134.8,134c-0.1,0-0.2,0-0.3,0l-9.1-1.9c-1.7-0.4-3.2-1.4-4.2-2.9s-1.3-3.3-0.9-5l4.6-21.8
					c0.4-1.7,1.4-3.2,2.9-4.2c1.5-1,3.3-1.3,5-0.9l9.1,1.9c0.8,0.2,1.3,1,1.2,1.8l-6.7,32c-0.1,0.4-0.3,0.7-0.6,0.9
					C135.4,133.9,135.1,134,134.8,134z M131.3,99.9c-0.7,0-1.4,0.2-2,0.6c-0.8,0.5-1.4,1.4-1.6,2.3l-4.6,21.8c-0.2,1,0,1.9,0.5,2.8
					c0.5,0.8,1.4,1.4,2.3,1.6l0,0l7.7,1.6l6.1-29l-7.7-1.6C131.8,100,131.6,99.9,131.3,99.9z"/>
			</g>
			<g>
				<path class="st2" d="M126.7,101.3l-5.1,24.4c0,0-5-0.8-8.9,0.2c-3.9,1-14.8,5.5-20.7,4.3c-9.5-2-19.2-11.5-25.1-15.8
					c-3.5-2.6-8.7-6.2-12.4-8.8c-2.4-1.7-2.9-5-1.1-7.3l0,0c1.6-2,4.4-2.5,6.5-1.2l19.9,11.8c1.1,0.7,2.4,1.2,3.7,1.4l15.4,3.2
					l-15-3.6l-2.2-0.9c-2.4-1-3.7-3.5-3.2-5.9l0,0c0.6-2.9,3.4-4.7,6.3-4l8.7,2.3c1.7,0.4,3.5,0.4,5.1-0.1l8.3-2.5
					c2.1-0.6,4.3-0.7,6.4-0.3L126.7,101.3z"/>
				<path class="st0" d="M94.3,132c-0.9,0-1.8-0.1-2.6-0.2c-7.8-1.6-15.7-8-21.4-12.7c-1.6-1.3-3-2.5-4.3-3.4
					c-3.4-2.5-8.6-6.2-12.4-8.8c-1.5-1-2.5-2.6-2.7-4.4c-0.3-1.8,0.2-3.6,1.3-5c2-2.6,5.7-3.2,8.5-1.6l16.3,9.7
					c-0.2-0.9-0.2-1.8,0-2.7c0.4-1.8,1.4-3.3,2.9-4.3s3.3-1.3,5.1-0.9l8.8,2.3c1.4,0.4,2.9,0.3,4.3-0.1l8.3-2.5
					c2.3-0.7,4.8-0.8,7.1-0.3l13.4,2.8c0.8,0.2,1.3,1,1.2,1.8L123,126c-0.2,0.8-0.9,1.3-1.7,1.2c0,0-4.7-0.7-8.3,0.2
					c-0.8,0.2-2.1,0.6-3.5,1.1C105.3,129.9,99.1,132,94.3,132z M57.4,97.9c-1.1,0-2.1,0.5-2.8,1.3c-0.6,0.8-0.9,1.7-0.7,2.7
					c0.1,1,0.7,1.8,1.5,2.4c3.8,2.6,9,6.3,12.4,8.9c1.3,1,2.8,2.2,4.4,3.5c5.5,4.5,13.1,10.6,20.1,12.1c4.2,0.9,11.5-1.5,16.3-3.1
					c1.5-0.5,2.7-0.9,3.7-1.1c2.9-0.8,6.2-0.6,8.1-0.4l4.5-21.6L113,100c-1.9-0.4-3.8-0.3-5.6,0.2l-8.3,2.5c-1.9,0.6-4,0.6-6,0.1
					l-8.7-2.3c-0.9-0.2-1.9,0-2.8,0.5c-0.8,0.5-1.4,1.4-1.6,2.4c-0.4,1.8,0.6,3.6,2.3,4.2l2.1,0.9l14.9,3.6c0.8,0.2,1.3,1,1.1,1.8
					c-0.2,0.8-1,1.3-1.8,1.1l-15.4-3.2c-1.5-0.3-2.8-0.8-4.1-1.6L59.2,98.4C58.6,98.1,58,97.9,57.4,97.9z"/>
			</g>
		</g>
		<g>
			<g>
				<path class="st0" d="M33.1,43.9H22.5c-0.8,0-1.5-0.7-1.5-1.5V8.5C21,7.7,21.6,7,22.5,7h10.7c3.9,0,7.1,3.2,7.1,7.1v22.7
					C40.2,40.7,37,43.9,33.1,43.9z M24,40.9h9.2c2.2,0,4.1-1.8,4.1-4.1V14.1c0-2.2-1.8-4.1-4.1-4.1H24V40.9z"/>
			</g>
			<g>
				<circle class="st0" cx="29.7" cy="34.8" r="2.1"/>
			</g>
			<g>
				<path class="st0" d="M55.6,46.1c-6.1,0-11.6-3.7-14-9.2h-3c-0.8,0-1.5-0.7-1.5-1.5v-21c0-0.8,0.7-1.5,1.5-1.5h3.1
					c0.8,0,1.6-0.2,2.4-0.5l11.4-4.8C56.5,7.2,57.5,7,58.5,7h23.9c1.8,0,3.5,0.7,4.8,1.9l20.1,19.2c1.5,1.4,2.3,3.4,2.3,5.5
					c0,2.1-1,4-2.5,5.4c-2.8,2.5-7,2.4-9.8-0.1L90.7,33c-1.3,2.2-3.9,4.2-6,4.2H69.4C67,42.6,61.6,46.1,55.6,46.1z M40.2,33.9h2.5
					c0.6,0,1.2,0.4,1.4,1c1.7,4.9,6.3,8.2,11.5,8.2c5.1,0,9.6-3.2,11.4-7.9c0.2-0.6,0.8-1,1.4-1h16.3c1.2,0,3.8-2.4,3.8-3.8
					c0-0.6,0.4-1.1,0.9-1.4c0.5-0.2,1.2-0.1,1.6,0.3l8.2,7.4c1.6,1.5,4.1,1.5,5.8,0.1c0.9-0.8,1.5-1.9,1.5-3.2
					c0-1.2-0.4-2.4-1.3-3.2L85.1,11.2c-0.7-0.7-1.7-1.1-2.8-1.1H58.5c-0.6,0-1.2,0.1-1.7,0.3l-11.4,4.8c-1.1,0.5-2.3,0.7-3.6,0.7
					h-1.6V33.9z"/>
			</g>
			<g>
				<path class="st0" d="M83.5,37.4H70.4c-0.8,0-1.5-0.7-1.5-1.5s0.7-1.5,1.5-1.5h13.1c2.8,0,5.1-2.3,5.1-5.1s-2.3-5.1-5.1-5.1H61.6
					c-0.8,0-1.5-0.7-1.5-1.5s0.7-1.5,1.5-1.5h21.9c4.4,0,8.1,3.6,8.1,8.1S87.9,37.4,83.5,37.4z"/>
			</g>
		</g>
		<g>
			<path class="st0" d="M95.5,48.8c-0.4,0-0.8-0.2-1.1-0.5c-0.6-0.6-0.5-1.6,0.1-2.1c2.6-2.4,4.2-5.9,4.2-9.5c0-7.2-5.8-13-13-13
				c-0.8,0-1.5-0.7-1.5-1.5s0.7-1.5,1.5-1.5c8.8,0,16,7.2,16,16c0,4.4-1.9,8.7-5.1,11.7C96.2,48.7,95.9,48.8,95.5,48.8z"/>
		</g>
		<g>
			<path class="st0" d="M85.7,52.7c-8.8,0-16-7.2-16-16c0-0.8,0.7-1.5,1.5-1.5s1.5,0.7,1.5,1.5c0,7.2,5.8,13,13,13
				c0.8,0,1.5,0.7,1.5,1.5S86.5,52.7,85.7,52.7z"/>
		</g>
		<g>
			<path class="st0" d="M85.7,92c-0.2,0-0.5-0.1-0.7-0.2l-4.4-2.2c-0.5-0.3-0.8-0.8-0.8-1.3v-24c0-0.8,0.7-1.5,1.5-1.5H90
				c0.8,0,1.5,0.7,1.5,1.5v24c0,0.6-0.3,1.1-0.8,1.3l-4.4,2.2C86.1,91.9,85.9,92,85.7,92z M82.8,87.4l2.9,1.4l2.9-1.4V65.8h-5.7
				V87.4z M90,88.3L90,88.3L90,88.3z"/>
		</g>
		<g>
			<path class="st0" d="M91.6,65.8h-13c-3,0-5.4-2.4-5.4-5.4V50.3c0-5.2,4.2-9.4,9.4-9.4h5c5.2,0,9.4,4.2,9.4,9.4v10.1
				C97,63.3,94.6,65.8,91.6,65.8z M82.6,43.9c-3.5,0-6.4,2.9-6.4,6.4v10.1c0,1.3,1.1,2.4,2.4,2.4h13c1.3,0,2.4-1.1,2.4-2.4V50.3
				c0-3.5-2.9-6.4-6.4-6.4H82.6z"/>
		</g>
		<g>
			<path class="st0" d="M132.4,82.5c-0.1,0-0.3,0-0.4-0.1l-9.6-2.9c-0.8-0.2-1.2-1.1-1-1.9c0.2-0.8,1.1-1.2,1.9-1l9.6,2.9
				c0.8,0.2,1.2,1.1,1,1.9C133.6,82.1,133,82.5,132.4,82.5z"/>
		</g>
		<g>
			<path class="st0" d="M49,57.5c-0.1,0-0.3,0-0.4-0.1l-10.6-3c-0.8-0.2-1.3-1-1-1.8c0.2-0.8,1.1-1.3,1.8-1l10.6,3
				c0.8,0.2,1.3,1,1,1.8C50.2,57.1,49.6,57.5,49,57.5z"/>
		</g>
		<g>
			<path class="st0" d="M121,52.9c-0.6,0-1.1-0.3-1.4-0.9c-0.3-0.8,0-1.6,0.7-2l9.3-4.3c0.8-0.3,1.6,0,2,0.7c0.3,0.8,0,1.6-0.7,2
				l-9.3,4.3C121.4,52.8,121.2,52.9,121,52.9z"/>
		</g>
		<g>
			<path class="st0" d="M40.4,88.5c-0.6,0-1.1-0.3-1.4-0.9c-0.3-0.8,0-1.6,0.8-2l10.3-4.3c0.8-0.3,1.6,0,2,0.8c0.3,0.8,0,1.6-0.8,2
				l-10.3,4.3C40.8,88.5,40.6,88.5,40.4,88.5z"/>
		</g>
	</g>
</g>
</svg>
