<?xml version="1.0" encoding="utf-8"?>
<!-- Generator: Adobe Illustrator 25.1.0, SVG Export Plug-In . SVG Version: 6.00 Build 0)  -->
<svg version="1.1" id="Capa_1" xmlns="http://www.w3.org/2000/svg" xmlns:xlink="http://www.w3.org/1999/xlink" x="0px" y="0px"
	 viewBox="0 0 164 141" style="enable-background:new 0 0 164 141;" xml:space="preserve">
<style type="text/css">
	.st0{fill:#CDD500;}
	.st1{fill:#075108;}
	.st2{fill:#FFFFFF;}
</style>
<g>
	<g>
		<g>
			<g>
				<polygon class="st0" points="102.9,26 113.9,26 113.9,44 102.9,35 				"/>
			</g>
			<g>
				<polyline class="st0" points="128.9,55 90.9,26 52.9,55 				"/>
			</g>
			<g>
				<polyline class="st0" points="117.9,55 117.9,91 64.9,91 64.9,55 				"/>
			</g>
		</g>
		<g>
			<g>
				<path class="st1" d="M112.9,41.5c-0.3,0-0.7-0.1-1-0.3l-11-9c-0.3-0.3-0.5-0.7-0.5-1.2v-9c0-0.8,0.7-1.5,1.5-1.5h11
					c0.8,0,1.5,0.7,1.5,1.5v18c0,0.6-0.3,1.1-0.9,1.4C113.4,41.5,113.2,41.5,112.9,41.5z M103.4,30.3l8,6.5V23.5h-8V30.3z"/>
			</g>
			<g>
				<path class="st1" d="M127.9,52.5c-0.3,0-0.6-0.1-0.9-0.3L89.9,23.9L52.9,52.2c-0.7,0.5-1.6,0.4-2.1-0.3
					c-0.5-0.7-0.4-1.6,0.3-2.1l38-29c0.5-0.4,1.3-0.4,1.8,0l38,29c0.7,0.5,0.8,1.4,0.3,2.1C128.8,52.3,128.4,52.5,127.9,52.5z"/>
			</g>
			<g>
				<path class="st1" d="M116.9,88.5h-53c-0.8,0-1.5-0.7-1.5-1.5V51c0-0.8,0.7-1.5,1.5-1.5s1.5,0.7,1.5,1.5v34.5h50V51
					c0-0.8,0.7-1.5,1.5-1.5s1.5,0.7,1.5,1.5v36C118.4,87.8,117.8,88.5,116.9,88.5z"/>
			</g>
			<g>
				<rect x="80.9" y="54" class="st2" width="18" height="33"/>
				<path class="st1" d="M98.9,88.5h-18c-0.8,0-1.5-0.7-1.5-1.5V54c0-0.8,0.7-1.5,1.5-1.5h18c0.8,0,1.5,0.7,1.5,1.5v33
					C100.4,87.8,99.8,88.5,98.9,88.5z M82.4,85.5h15v-30h-15V85.5z"/>
			</g>
		</g>
		<g>
			<path class="st1" d="M21.9,72.5c-2.8,0-5-2.2-5-5s2.2-5,5-5s5,2.2,5,5S24.7,72.5,21.9,72.5z M21.9,65.5c-1.1,0-2,0.9-2,2
				s0.9,2,2,2s2-0.9,2-2S23,65.5,21.9,65.5z"/>
		</g>
		<g>
			<path class="st1" d="M25.4,109.5H9.9c-0.8,0-1.5-0.7-1.5-1.5V54c0-0.8,0.7-1.5,1.5-1.5h15.4c5.5,0,10.1,4.5,10.1,10.1v36.9
				C35.4,105,30.9,109.5,25.4,109.5z M11.4,106.5h13.9c3.9,0,7.1-3.2,7.1-7.1V62.6c0-3.9-3.2-7.1-7.1-7.1H11.4V106.5z"/>
		</g>
		<g>
			<path class="st2" d="M33.7,60.4v41.2c0,0,8.3,0.4,14.3,3.4s22,14,32,14c16,0,35-12,46-17c6.5-3,16.2-7.1,23.1-10.1
				c4.4-1.9,6.3-7.1,4.2-11.4l0,0c-1.9-3.7-6.2-5.5-10.2-4.2l-36.2,12.3c-2.1,0.7-4.2,1.1-6.4,1.1H74.4L99.9,89l3.9-0.7
				c4.1-0.8,7.1-4.3,7.1-8.5v0c0-4.8-3.9-8.7-8.8-8.7l-14.8,0.7c-2.9,0.1-5.8-0.5-8.3-1.9L66.5,63c-3.1-1.7-6.6-2.6-10.2-2.6H33.7z"
				/>
			<path class="st1" d="M79.9,120.5c-8.2,0-19.7-6.7-27.4-11.2c-2.1-1.2-4-2.3-5.3-3c-5.6-2.8-13.6-3.3-13.7-3.3
				c-0.8,0-1.4-0.7-1.4-1.5V60.4c0-0.8,0.7-1.5,1.5-1.5h22.6c3.8,0,7.6,1,10.9,2.8l12.6,6.9c2.3,1.2,4.9,1.8,7.5,1.7l14.8-0.7
				c2.8,0,5.4,1,7.3,2.9c1.9,1.9,3,4.5,3,7.2c0,2.3-0.7,4.4-2,6.1l32.1-10.9c4.7-1.6,9.8,0.5,12,5c1.2,2.5,1.4,5.2,0.4,7.8
				c-0.9,2.6-2.8,4.6-5.4,5.6c-7,3-16.6,7.1-23,10.1c-2.4,1.1-5.2,2.5-8.1,4C107.6,112.9,92.8,120.5,79.9,120.5z M35.2,100.2
				c2.7,0.3,8.7,1.1,13.5,3.5c1.4,0.7,3.3,1.8,5.5,3.1c7.4,4.3,18.5,10.8,25.9,10.8c12.2,0,26.6-7.4,37.1-12.8c3-1.5,5.8-3,8.3-4.1
				c6.5-2.9,16.1-7.1,23.1-10.1c1.7-0.7,3.1-2.1,3.7-3.9c0.7-1.8,0.6-3.7-0.3-5.4c-1.5-3.1-5.1-4.5-8.3-3.4l-36.2,12.3
				c-2.2,0.8-4.5,1.1-6.9,1.1H74.4c-0.8,0-1.5-0.7-1.5-1.5c0-0.8,0.6-1.5,1.5-1.5l25.4-0.7l3.8-0.7c3.4-0.6,5.9-3.6,5.9-7.1
				c0-1.9-0.8-3.7-2.1-5.1c-1.4-1.3-3.1-2.1-5.1-2.1c0,0,0,0-0.1,0l-14.8,0.7c-3.1,0.2-6.3-0.6-9.1-2.1l-12.6-6.9
				c-2.9-1.6-6.2-2.4-9.5-2.4H35.2V100.2z"/>
		</g>
	</g>
</g>
</svg>
